<?xml version="1.0" encoding="UTF-8"?>
<svg id="Capa_2" data-name="Capa 2" xmlns="http://www.w3.org/2000/svg" viewBox="0 0 20.42 16">
  <defs>
    <style>
      .cls-1 {
        fill: #efb810;
      }

      .cls-1, .cls-2 {
        stroke-width: 0px;
      }

      .cls-2 {
        fill: #fa4c33;
      }
    </style>
  </defs>
  <g id="Capa_1-2" data-name="Capa 1">
    <g>
      <path class="cls-1" d="M1.18,2.57c.83,0,1.81.16,1.83,1.73.02.95-.3,1.49-.69,1.77.2.63.36,1.15.65,1.97.06.17.17.31.17.5,0,.14-.16.12-.3.12h-.8c-.06,0-.18-.17-.2-.25-.23-.77-.34-1.21-.58-2.04h-.11c.01.57-.01,1.4,0,2,0,.1,0,.29-.05.29-.16,0-.31.03-.47.03-.2,0-.36-.03-.56-.03-.06,0-.04-.25-.04-.33.01-2.01.05-3.36.06-5.32-.01-.33.06-.45.17-.45.31,0,.58,0,.94,0ZM1.26,4.95c.41,0,.65-.03.65-.47,0-.39-.22-.53-.68-.48-.05,0-.12.05-.13.21-.01.28-.02.35-.02.64,0,.12.11.1.17.1Z"/>
      <path class="cls-1" d="M4.71,3.34c.06,0,.06.06.05.26-.03.5-.03.51-.05.88,0,.35.03.84.17.94.07.05.16.08.24.08.1,0,.2-.04.26-.13.14-.22.15-.7.15-1.12,0-.56-.03-.93-.01-1.57,0,0,0-.13.08-.13.23,0,.51.01.77.01h.23c.09,0,.06.26.06.38,0,.11,0,.23,0,.35-.02.81.05,1.78-.11,2.38-.13.47-.48,1.03-1.4,1.03-1.18,0-1.5-.76-1.51-1.29-.03-1.14-.03-1.02-.01-1.91,0-.06,0-.18.05-.18h1.04Z"/>
      <path class="cls-1" d="M11.45,3.87s.13,0,.16.01c.02.02.02.11.02.26,0,.26,0,.45,0,.55,0,.1-.03.34.08.34.19.02.39,0,.58,0,.06,0,.19.03.19-.09v-.14s0-1.76,0-1.76c0-.15-.05-.52.06-.52.17,0,.2-.01.32,0,.23,0,.44.02.62,0,.08,0,.15,0,.15.14v.25c-.03,1.85-.02,2.7,0,4.58,0,.17-.12.17-.27.17h-.66c-.21,0-.2-.06-.2-.27v-.55c-.01-.06,0-.2-.06-.2h-.1c-.22,0-.43.02-.65.02-.06,0-.05.17-.05.24v1.66c0,.19-.92.13-1.06.13-.09,0-.06-.67-.06-.94.01-1.3-.03-1.48-.03-2.96v-.59c0-.11-.02-.32.01-.32.3,0,.65,0,.98,0Z"/>
      <path class="cls-1" d="M.02,15.41c-.04-2.02.01-4.01-.02-5.52,0-.12.12-.12.3-.12.45,0,1.39-.08,1.81.15.48.28.66.72.66,1.51,0,.57-.23,1.05-.42,1.16-.05.03.61.17.61,1.55,0,1.94-1.53,1.77-2.68,1.75-.09,0-.16-.03-.21-.12-.06-.11-.04-.21-.04-.35ZM1.09,11.16c.01.3,0,.45.03.76,0,0,0,.06.05.08.05.01.13-.01.16-.01.39-.05.4-.36.38-.53-.01-.17-.15-.4-.41-.38-.03,0-.13-.02-.18,0-.03.01-.03.06-.03.08ZM1.12,13.51c.01.34,0,.51.03.85,0,.08.04.09.1.09.05,0,.1-.01.13-.01.36-.03.44-.32.43-.5-.02-.19-.09-.49-.45-.52-.03,0-.16-.02-.2,0-.04.01-.03.07-.03.1Z"/>
      <path class="cls-1" d="M4.53,10.96c.06,0,.06.1.05.39-.03.75-.03.77-.05,1.32,0,.52.03,1.25.17,1.41.07.08.16.12.24.12.1,0,.2-.06.26-.2.14-.33.15-1.05.15-1.66,0-.83-.03-1.38-.01-2.35,0-.01,0-.19.08-.19.23.01.51.02.77.02h.23c.09,0,.06.39.06.57,0,.17,0,.34,0,.52-.02,1.21.05,2.66-.11,3.55-.13.7-.48,1.54-1.4,1.54-1.18,0-1.5-1.14-1.51-1.92-.03-1.7-.03-1.52-.01-2.85,0-.09,0-.27.05-.27h1.04Z"/>
      <path class="cls-1" d="M8.12,9.82c.83,0,1.81.16,1.83,1.73.02.9-.27,1.43-.63,1.73.2.65.37,1.17.66,2.01.06.17.17.31.17.5,0,.14-.16.12-.3.12h-.8c-.06,0-.18-.17-.2-.25-.23-.77-.34-1.21-.58-2.04h-.18c.01.57-.01.22,0,.82,0,.1,0,.29-.05.29-.16,0-.31.03-.47.03-.2,0-.36-.03-.56-.03-.06,0-.04-.25-.04-.33.01-2.01.05-2.17.06-4.14-.01-.33.06-.45.17-.45.31,0,.58,0,.94,0ZM8.21,12.21c.41,0,.65-.03.65-.47,0-.39-.22-.53-.68-.48-.05,0-.12.05-.13.21-.01.28-.02.35-.02.64,0,.12.11.1.17.1Z"/>
      <path class="cls-1" d="M13.46,13.8s-.02.03-.03.03c-.23.15-.81.25-1.28.25-.16,0-.3-.01-.42-.03-.75-.14-1.12-.95-1.12-2.07s.4-2.2,1.7-2.2c.36,0,.75,0,1.08.15.05.03.09.11.09.17,0,.24,0,.85-.17.85-.23-.03-.43-.05-.61-.05-.59,0-.92.23-.97.91-.04.66.19.97.43,1.08.08.04.17.05.27.05.06,0,.13,0,.2-.01.02-.19.02-.36-.08-.49-.08-.11-.26-.07-.38-.07-.07,0-.12-.01-.13-.08-.02-.25-.02-.49,0-.63.01-.1.5-.12.91-.12.25,0,.48,0,.57.02.2.02.1,1.89.08,1.96-.02.1-.06.23-.15.29ZM13.55,15.91h-2.77c-.1,0-.05-.32-.07-.92,0-.28,0-.22,0-.45,0-.1.97-.06,1.3-.07.23-.01,1.08,0,1.31,0,.11,0,.15,0,.24,0,.1,0,.07.17.07.91,0,.18.02.53-.08.53Z"/>
      <path class="cls-1" d="M14.2,9.89c0-.13.1-.13.16-.13.65,0,1.52-.04,2.2-.05.06,0,.19-.02.18.08-.02.56-.02,1.08-.03,1.64-.46,0-.9.03-1.4.03-.01.35-.01.3,0,.63,0,.03,0,.13.02.13.02,0,.02,0,.05-.02.23-.02.61-.03.88-.04.06,0,.13-.02.13.04v.25c0,.33-.01.73-.02,1.01,0,.09-.02.1-.09.1-.35,0-.78.03-.97.04,0,.14,0,.29,0,.43,0,.26,0,.52,0,.78,1.01-.07,2.02-.15,3.03-.22,0,.19,0,.37,0,.56,0,.26,0,.51,0,.77-2.3,0-3.98,0-4.05,0,0,0-.02,0-.04-.01-.03-.02-.05-.07-.05-.16v-5.84Z"/>
      <path class="cls-1" d="M17.23,14.31c0-.46,0-.86,0-1.17,0-.67.02-1.14.02-1.28,0-.15,0-.21.01-.39,0-.32.01-.7.01-1.2-.01-.33.06-.45.17-.45.31,0,.58,0,.94,0,.83,0,1.81.16,1.83,1.73.02.9-.27,1.43-.63,1.73.2.65.37,1.17.66,2.01.06.17.17.31.17.5,0,.14-.16.12-.3.12h-.8c-.06,0-.18-.17-.2-.25-.23-.77-.34-1.21-.58-2.04h-.18c0,.22,0,.3,0,.36,0,0,0,.04,0,.08,0,.06,0,.11,0,.14-.37.04-.74.07-1.12.11ZM18.47,12.21c.41,0,.65-.03.65-.47,0-.39-.22-.53-.68-.48-.05,0-.12.05-.13.21-.01.28-.02.35-.02.64,0,.12.11.1.17.1Z"/>
      <path class="cls-2" d="M14.33,5.65c.15-.04.26,0,.38.04.13.04.15,0,.11-.13-.03-.09-.05-.18-.06-.27-.08-.41-.02-.78.22-1.12.31-.46.46-.96.41-1.53-.02-.21-.1-.41-.15-.62.3.04.57.36.61.72.01.12,0,.24,0,.36,0,.04,0,.09.03.11.05.03.08-.01.11-.05.18-.2.28-.43.31-.7.03-.26,0-.52-.03-.78-.09-.62.06-1.14.57-1.51.03-.02.05-.04.08-.05.11-.06.26-.16.35-.08.08.07-.08.18-.12.27-.22.46-.21.9.05,1.33.16.26.38.43.68.39.3-.04.44-.27.54-.53.02-.05.03-.1.05-.16.11.02.12.11.13.19.03.28-.03.54-.14.8-.22.49-.24.97.04,1.43.03.05.05.12.12.13.03-.02.03-.04.03-.07-.08-.46.07-.83.37-1.17.31-.34.31-.4.31-.74.11.08.16.18.18.36.03.22.01.44-.05.66-.06.21-.1.41-.12.63-.02.29.02.55.17.81.15.26.27.55.32.85,0,.05,0,.12.07.12.06,0,.06-.08.06-.13.02-.13,0-.12,0-.13,0-.11-.02-.21-.04-.28.02.01.06.04.09.07,0,0,.05.06.09.14.38.81.4,1.61-.04,2.41-.25.46-.57.66-1.14,1.04-.28.19-.37.21-.39.18-.05-.06.18-.3.38-.75.22-.5.24-.95.2-.97-.03-.01-.07.19-.25.29-.04.03-.14.09-.25.04-.11-.04-.15-.16-.16-.19-.05-.14.01-.25.05-.42.04-.22.01-.4-.03-.63-.06-.33-.19-.64-.24-.63-.07.02.14.58-.12.99-.02.03-.2.3-.42.28-.18-.02-.29-.23-.34-.32-.14-.28-.04-.4-.12-.79-.09-.41-.3-.67-.45-.87-.07-.1-.25-.32-.31-.29-.07.05.22.5.26,1.19,0,.12.04.88-.28,1.04-.08.04-.19.05-.28,0-.16-.11-.15-.41-.18-.41-.04,0-.14.44-.07,1,.12.86.57,1.32.46,1.43-.13.14-.81-.42-.89-.49-.19-.16-.3-.24-.42-.39-.33-.4-.49-.91-.56-1.46-.03-.23-.08-.45-.21-.66Z"/>
      <path class="cls-1" d="M10.01,6.81c.02.61-.2,1.31-.6,1.57-.09.06-.3.17-.56.23-.11.03-.21.04-.28.05,0,0-.05,0-.1,0-.34.02-3.89-.02-4.1-.01-.16,0-.33,0-.49,0-.06,0-.06,0-.07,0-.05,0-.08,0-.11,0-.04,0-.06,0-.07,0-.07-.03-.06-1.01-.07-1.29,0-.26,0-.34.05-.41.16-.22,1.81.22,3.24.46.95.16,1.33.2,1.51-.06.13-.18.11-.44.1-.52-.04-.46-.4-.77-.51-.88-.35-.37-.45-.39-.59-.65-.14-.27-.14-.61-.15-.76,0-.07-.01-.23,0-.4.01-.15.06-.76.49-1.18.32-.31.68-.39,1.06-.39.35,0,.73.04,1.05.26.05.03.09.15.09.24,0,.49.06,1.1-.17,1.18-.08.03-.15-.01-.3-.08-.19-.09-.21-.18-.36-.27-.08-.05-.35-.21-.57-.08-.13.08-.23.26-.21.43.02.2.21.3.41.44,0,0,.45.32.83.78.44.54.48,1.24.48,1.31Z"/>
    </g>
  </g>
</svg>