<?xml version="1.0" encoding="UTF-8"?>
<svg id="Capa_2" data-name="Capa 2" xmlns="http://www.w3.org/2000/svg" viewBox="0 0 12.91 15.93">
  <defs>
    <style>
      .cls-1 {
        fill: #fa4c33;
        stroke-width: 0px;
      }
    </style>
  </defs>
  <g id="Capa_1-2" data-name="Capa 1">
    <path class="cls-1" d="M0,10.37c.31-.08.55,0,.8.07.27.07.31-.01.23-.23-.06-.16-.1-.33-.14-.5-.17-.75-.04-1.43.46-2.06.66-.84.98-1.77.88-2.81-.04-.39-.2-.76-.33-1.14.63.07,1.21.66,1.3,1.33.03.22.01.44.02.66,0,.07-.02.16.06.2.11.05.18-.03.24-.09.37-.36.59-.8.65-1.28.06-.48.02-.95-.06-1.43-.19-1.13.13-2.09,1.21-2.78.06-.04.11-.07.17-.1.24-.1.56-.3.75-.15.17.14-.16.33-.26.5-.47.84-.45,1.65.11,2.45.34.47.8.79,1.45.72.63-.07.94-.49,1.15-.98.04-.09.06-.18.1-.29.24.04.26.2.27.36.06.52-.05,1-.3,1.46-.47.89-.5,1.77.1,2.63.07.1.11.22.26.25.07-.03.07-.08.06-.13-.17-.84.15-1.53.79-2.14.65-.63.67-.74.65-1.36.22.15.34.34.39.65.06.41.03.81-.1,1.2-.12.38-.22.76-.25,1.15-.03.53.05,1.02.36,1.48.32.48.57,1,.67,1.57.02.08,0,.23.16.21.14-.01.12-.15.13-.24.04-.24.02-.22.02-.24,0-.2-.05-.38-.09-.51.05.03.12.07.19.13,0,0,.11.11.19.27.8,1.49.85,2.95-.09,4.42-.54.84-1.21,1.22-2.43,1.92-.59.34-.78.38-.83.33-.1-.11.38-.56.8-1.38.47-.92.52-1.74.43-1.77-.06-.02-.15.34-.53.54-.09.05-.3.16-.53.08-.22-.08-.32-.29-.34-.36-.1-.26.03-.45.1-.76.09-.41.03-.74-.06-1.15-.12-.6-.41-1.18-.52-1.15-.14.03.3,1.07-.25,1.82-.04.06-.42.56-.89.51-.39-.04-.62-.43-.71-.58-.3-.51-.08-.74-.26-1.44-.19-.75-.63-1.24-.95-1.59-.16-.17-.54-.6-.65-.53-.15.09.47.92.55,2.18.01.22.08,1.62-.59,1.91-.17.07-.41.09-.59-.01-.35-.2-.31-.75-.38-.75-.08,0-.3.81-.14,1.84.25,1.59,1.21,2.42.98,2.63-.27.25-1.72-.77-1.9-.9-.41-.29-.64-.45-.89-.72-.69-.74-1.04-1.67-1.19-2.69-.06-.41-.17-.82-.45-1.22Z"/>
  </g>
</svg>